<?xml version="1.0" encoding="UTF-8" standalone="no"?>
<!-- Created with Inkscape (http://www.inkscape.org/) -->

<svg
   xmlns:dc="http://purl.org/dc/elements/1.1/"
   xmlns:cc="http://creativecommons.org/ns#"
   xmlns:rdf="http://www.w3.org/1999/02/22-rdf-syntax-ns#"
   xmlns:svg="http://www.w3.org/2000/svg"
   xmlns="http://www.w3.org/2000/svg"
   xmlns:sodipodi="http://sodipodi.sourceforge.net/DTD/sodipodi-0.dtd"
   xmlns:inkscape="http://www.inkscape.org/namespaces/inkscape"
   width="112.92657mm"
   height="168.92624mm"
   id="svg2"
   sodipodi:version="0.32"
   inkscape:version="0.92.3 (2405546, 2018-03-11)"
   sodipodi:docname="icecream.svg"
   inkscape:output_extension="org.inkscape.output.svg.inkscape"
   version="1.1">
  <defs
     id="defs4">
    <filter
       inkscape:collect="always"
       id="filter5171">
      <feGaussianBlur
         inkscape:collect="always"
         stdDeviation="1.5744289"
         id="feGaussianBlur5173" />
    </filter>
    <filter
       inkscape:collect="always"
       id="filter5249"
       x="-0.1577132"
       width="1.3154263"
       y="-0.064068712"
       height="1.1281374">
      <feGaussianBlur
         inkscape:collect="always"
         stdDeviation="1.2896426"
         id="feGaussianBlur5251" />
    </filter>
    <filter
       inkscape:collect="always"
       id="filter3232">
      <feGaussianBlur
         inkscape:collect="always"
         stdDeviation="2.1985767"
         id="feGaussianBlur3234" />
    </filter>
    <filter
       inkscape:collect="always"
       style="color-interpolation-filters:sRGB"
       id="filter907"
       x="-0.045742705"
       width="1.0914854"
       y="-0.029678745"
       height="1.0593575">
      <feGaussianBlur
         inkscape:collect="always"
         stdDeviation="6.952534"
         id="feGaussianBlur909" />
    </filter>
  </defs>
  <sodipodi:namedview
     id="base"
     pagecolor="#ffffff"
     bordercolor="#666666"
     borderopacity="1.0"
     inkscape:pageopacity="0.0"
     inkscape:pageshadow="2"
     inkscape:zoom="1.3563859"
     inkscape:cx="213.40454"
     inkscape:cy="319.23069"
     inkscape:document-units="px"
     inkscape:current-layer="layer1"
     showgrid="false"
     fit-margin-top="0"
     fit-margin-left="0"
     fit-margin-right="0"
     fit-margin-bottom="0"
     showborder="false"
     inkscape:window-width="1920"
     inkscape:window-height="1017"
     inkscape:window-x="-4"
     inkscape:window-y="9"
     inkscape:window-maximized="1" />
  <metadata
     id="metadata7">
    <rdf:RDF>
      <cc:Work
         rdf:about="">
        <dc:format>image/svg+xml</dc:format>
        <dc:type
           rdf:resource="http://purl.org/dc/dcmitype/StillImage" />
        <dc:title></dc:title>
      </cc:Work>
    </rdf:RDF>
  </metadata>
  <g
     inkscape:label="Ebene 1"
     inkscape:groupmode="layer"
     id="layer1"
     transform="translate(-288.19915,-327.52205)">
    <g
       id="g965">
      <path
         inkscape:connector-curvature="0"
         transform="matrix(1.0719715,0,0,1.0719715,102.43598,230.99659)"
         d="m 393.53973,119.69968 c -31.09845,0 -58.72694,12.40435 -75.96875,31.5 -0.009,0.012 -0.0192,0.0226 -0.0312,0.0312 -0.0104,10e-4 -0.0209,10e-4 -0.0312,0 -0.0104,10e-4 -0.0209,10e-4 -0.0312,0 -0.0104,10e-4 -0.0209,10e-4 -0.0312,0 -3.9905,-0.51284 -8.03798,-0.8125 -12.15625,-0.8125 -56.47502,0 -102.34375,49.55645 -102.34375,110.53125 1e-5,27.23122 9.16125,52.08196 24.3125,71.34375 0.0121,0.009 0.0226,0.0192 0.0312,0.0312 10e-4,0.0104 10e-4,0.0209 0,0.0312 10e-4,0.0104 10e-4,0.0209 0,0.0312 10e-4,0.0104 10e-4,0.0209 0,0.0312 10e-4,0.0104 10e-4,0.0209 0,0.0312 -0.009,0.012 -0.0192,0.0226 -0.0312,0.0312 -0.009,0.012 -0.0192,0.0226 -0.0312,0.0312 -1.3209,0.59176 -2.58635,2.3499 -3.75,5.125 -1.16365,2.7751 -2.22516,6.55611 -3.1875,11.21875 -1.92467,9.32528 -3.45596,22.11413 -4.59375,37.21875 -2.27557,30.20924 -3.03719,69.65159 -2.4375,109 0.59969,39.34841 2.55363,78.62459 5.65625,108.5 1.55131,14.9377 3.39458,27.51877 5.5,36.59375 1.05271,4.53749 2.16568,8.18368 3.34375,10.8125 1.17807,2.62882 2.41715,4.22859 3.65625,4.65625 0.99563,0.34363 2.57653,0.0669 4.625,-0.8125 2.04847,-0.87943 4.5792,-2.36365 7.53125,-4.375 5.90411,-4.02271 13.48925,-10.18065 22.3125,-18 17.6465,-15.63871 40.2395,-37.88211 64.21875,-62.90625 47.9585,-50.04828 101.49229,-111.17429 132.1875,-152.4375 0.009,-0.012 0.0192,-0.0226 0.0312,-0.0312 0.0104,-10e-4 0.0209,-10e-4 0.0312,0 0.0104,-10e-4 0.0209,-10e-4 0.0312,0 0.0104,-10e-4 0.0209,-10e-4 0.0312,0 0.0104,-10e-4 0.0209,-10e-4 0.0312,0 0.012,0.009 0.0226,0.0192 0.0312,0.0312 0.012,0.009 0.0226,0.0192 0.0312,0.0312 0.001,0.0104 0.001,0.0209 0,0.0312 0.001,0.0104 0.001,0.0209 0,0.0312 0.001,0.0104 0.001,0.0209 0,0.0312 -1.10459,8.36643 -0.63664,14.6948 1.6875,18.03125 1.16207,1.66822 2.7952,2.58857 4.9375,2.6875 2.1423,0.0989 4.81456,-0.65187 8.0625,-2.375 16.85153,-8.94026 33.00608,-19.58904 44.9375,-35.46875 11.93142,-15.87971 19.65626,-36.98778 19.65625,-66.8125 -4.84478,-58.1803 -17.10049,-103.1507 -53.8125,-130.5625 -0.0121,-0.009 -0.0226,-0.0192 -0.0312,-0.0312 -10e-4,-0.0104 -10e-4,-0.0209 0,-0.0312 -10e-4,-0.0104 -10e-4,-0.0209 0,-0.0312 0.12682,-1.64985 0.21875,-3.32639 0.21875,-5 0,-42.99988 -42.39512,-77.93752 -94.625,-77.9375 z m 0,-12.96875 c -32.04987,0 -60.97671,11.8439 -80.96875,31.21875 -2.42616,-0.17435 -4.77967,-0.5 -7.28125,-0.5 -64.06212,0 -115.3125,56.02005 -115.3125,123.5 1e-5,26.65972 7.97844,51.39741 21.53125,71.65625 0.005,0.007 -0.005,0.0242 0,0.0312 -1.69704,4.05425 -2.87674,8.45426 -3.9375,13.59375 -2.12614,10.30141 -3.65093,23.45459 -4.8125,38.875 -2.32315,30.84083 -3.07294,70.5121 -2.46875,110.15625 0.60419,39.64415 2.55303,79.17321 5.71875,109.65625 1.58286,15.24152 3.45522,28.16162 5.78125,38.1875 1.16301,5.01294 2.36509,9.26032 4.125,13.1875 1.75991,3.92718 3.40465,8.87524 11.28125,11.59375 6.79142,2.34395 10.64838,0.30047 13.96875,-1.125 3.32037,-1.42547 6.35631,-3.30278 9.71875,-5.59375 6.72489,-4.58194 14.54005,-10.97641 23.59375,-19 18.1074,-16.04718 40.86422,-38.46876 65,-63.65625 40.79105,-42.56851 85.24275,-92.70948 117,-132.6875 3.32145,2.86079 7.86344,4.89985 12.0625,5.09375 5.62764,0.25987 10.26733,-1.49681 14.75,-3.875 17.59483,-9.33461 35.58743,-21.01412 49.21875,-39.15625 13.63132,-18.14213 22.25001,-42.52797 22.25,-74.59375 -0.006,-0.35488 -0.027,-0.70935 -0.0625,-1.0625 -4.72572,-56.75054 -16.80094,-104.66064 -53.625,-135.5625 -0.6264,-51.03865 -49.8868,-89.93752 -107.53125,-89.9375 z"
         style="display:inline;overflow:visible;visibility:visible;opacity:0.9;fill:#675649;fill-opacity:1;fill-rule:evenodd;stroke:#675649;stroke-width:2.48306441;stroke-linecap:round;stroke-linejoin:round;stroke-miterlimit:4;stroke-dasharray:none;stroke-dashoffset:0;stroke-opacity:1;marker:none;marker-start:none;marker-mid:none;marker-end:none;filter:url(#filter907);enable-background:accumulate"
         id="path2431" />
      <ellipse
         ry="118.54407"
         rx="109.82759"
         cy="504.41608"
         cx="423.26483"
         id="path3240"
         style="display:inline;overflow:visible;visibility:visible;fill:#eeffaa;fill-opacity:1;fill-rule:evenodd;stroke:#e0ff5b;stroke-width:2.66162014;stroke-linecap:round;stroke-linejoin:round;stroke-miterlimit:4;stroke-dasharray:none;stroke-dashoffset:0;stroke-opacity:1;marker:none;marker-start:none;marker-mid:none;marker-end:none;enable-background:accumulate" />
      <ellipse
         ry="83.678177"
         rx="101.54694"
         cy="436.57971"
         cx="517.88544"
         style="display:inline;overflow:visible;visibility:visible;fill:#87deaa;fill-opacity:1;fill-rule:evenodd;stroke:#48ce7e;stroke-width:2.6616199;stroke-linecap:round;stroke-linejoin:round;stroke-miterlimit:4;stroke-dasharray:none;stroke-dashoffset:0;stroke-opacity:1;marker:none;marker-start:none;marker-mid:none;marker-end:none;enable-background:accumulate"
         id="path3242" />
      <path
         inkscape:connector-curvature="0"
         style="display:inline;overflow:visible;visibility:visible;fill:#c87137;fill-opacity:1;fill-rule:evenodd;stroke:#675649;stroke-width:2.66162038;stroke-linecap:round;stroke-linejoin:round;stroke-miterlimit:4;stroke-dasharray:none;stroke-dashoffset:0;stroke-opacity:1;marker:none;marker-start:none;marker-mid:none;marker-end:none;enable-background:accumulate"
         d="m 340.57357,580.77372 c 76.60022,29.99986 167.72385,49.72364 277.00066,41.27944 23.05514,14.27948 -249.81503,313.81568 -273.51406,305.63628 -22.76412,-7.85675 -28.36163,-345.43991 -3.4866,-346.91572 z"
         id="path3244"
         sodipodi:nodetypes="ccsc" />
      <path
         inkscape:connector-curvature="0"
         transform="matrix(1.725774,0,0,1.725774,-187.24491,-326.50609)"
         sodipodi:nodetypes="css"
         id="path3246"
         d="m 330.88831,621.68626 c 21.40674,-3.29507 9.62501,-47.5055 7.57245,-48.18081 -4.07431,-1.34052 -25.32333,50.91315 -7.57245,48.18081 z"
         style="display:inline;overflow:visible;visibility:visible;fill:#2e0c0c;fill-opacity:0.51502147;fill-rule:evenodd;stroke:none;stroke-width:2.00000024;stroke-linecap:round;stroke-linejoin:round;stroke-miterlimit:4;stroke-dashoffset:0;stroke-opacity:1;marker:none;marker-start:none;marker-mid:none;marker-end:none;filter:url(#filter5249);enable-background:accumulate" />
      <path
         inkscape:connector-curvature="0"
         id="path3248"
         d="m 577.48301,656.24169 c -9.27073,0.12641 -21.3022,23.9701 -47.28124,22.25 -9.29132,45.55367 -32.39066,35.86427 -45.09375,13.71875 -2.28639,3.08558 -4.64755,6.28533 -7.03125,9.5625 l 7.53125,8 -16.96875,5.09375 c -2.12844,2.98828 -4.26804,6.07165 -6.4375,9.15625 l 8.53125,9.0625 -18.78125,5.65625 c -2.44319,3.53833 -4.91935,7.14892 -7.375,10.75 l 9.09375,9.65625 -19.59375,5.90625 c -1.61735,2.41395 -3.26797,4.80037 -4.875,7.21875 l 9.59375,10.21875 -20.3125,6.09375 c -2.31094,3.54513 -4.59026,7.09008 -6.84375,10.59375 l 10.09375,10.71875 -20.90625,6.28125 c -1.35214,2.1542 -2.68579,4.29027 -4,6.40625 l 10.03125,10.625 -20.25,6.09375 c -2.09239,3.48279 -4.13483,6.89236 -6.0625,10.1875 l 9.21875,9.78125 -17.84375,5.375 c -1.83295,3.318 -3.51201,6.43273 -5.0625,9.40625 l 8.03125,8.5625 -14.3125,4.28125 c -4.68915,10.55852 -5.83431,16.66158 -2.03125,16.21875 20.67425,-2.40737 238.11767,-232.38836 223.87499,-244.1875 -1.59989,-1.9161 -3.2207,-2.71091 -4.9375,-2.6875 z"
         style="display:inline;overflow:visible;visibility:visible;fill:#925228;fill-opacity:1;fill-rule:evenodd;stroke:none;stroke-width:2;stroke-linecap:round;stroke-linejoin:round;stroke-miterlimit:4;stroke-dasharray:none;stroke-dashoffset:0;stroke-opacity:1;marker:none;marker-start:none;marker-mid:none;marker-end:none;enable-background:accumulate" />
      <path
         inkscape:connector-curvature="0"
         transform="matrix(1.725774,0,0,1.725774,-182.05778,-329.09966)"
         sodipodi:nodetypes="cscscc"
         id="path3250"
         d="m 414.69491,435.93955 c 9.46166,36.74588 22.78238,75.69939 3.22517,119.19685 -22.53393,50.11805 17.72751,5.2068 34.1849,4.01413 -9.99587,25.38883 -12.1579,45.65733 1.48762,38.41799 20.9445,-11.11169 40.13437,-26.54006 40.13436,-63.62072 -4.48007,-53.80026 -19.11988,-89.50217 -79.03205,-98.00825 z"
         style="display:inline;overflow:visible;visibility:visible;fill:#132848;fill-opacity:0.67381975;fill-rule:evenodd;stroke:none;stroke-width:1.99999988;stroke-linecap:round;stroke-linejoin:round;stroke-miterlimit:4;stroke-dasharray:none;stroke-dashoffset:0;stroke-opacity:1;marker:none;marker-start:none;marker-mid:none;marker-end:none;filter:url(#filter5171);enable-background:accumulate" />
      <path
         inkscape:connector-curvature="0"
         style="display:inline;overflow:visible;visibility:visible;fill:#afc6e9;fill-opacity:1;fill-rule:evenodd;stroke:#7099d8;stroke-width:2.6616199;stroke-linecap:round;stroke-linejoin:round;stroke-miterlimit:4;stroke-dasharray:none;stroke-dashoffset:0;stroke-opacity:1;marker:none;marker-start:none;marker-mid:none;marker-end:none;enable-background:accumulate"
         d="m 540.51503,412.87884 c 16.32868,63.41508 39.31723,130.64004 5.56591,205.70682 -38.88847,86.49244 30.59367,8.98577 58.99541,6.92749 -17.25061,43.81537 -20.98178,78.79422 2.5673,66.30076 36.14547,-19.17627 69.26285,-45.80214 69.26284,-109.79499 -7.7316,-92.84708 -32.9966,-154.4605 -136.39146,-169.14008 z"
         id="path3252"
         sodipodi:nodetypes="cscscc" />
      <path
         inkscape:connector-curvature="0"
         transform="matrix(1.2967847,0,0,1.2967847,-37.478,7.949704)"
         style="display:inline;overflow:visible;visibility:visible;opacity:0.5;fill:#000000;fill-opacity:1;fill-rule:evenodd;stroke:none;stroke-width:2.6617744;stroke-linecap:round;stroke-linejoin:round;stroke-miterlimit:4;stroke-dasharray:none;stroke-dashoffset:0;stroke-opacity:1;marker:none;marker-start:none;marker-mid:none;marker-end:none;filter:url(#filter3232);enable-background:accumulate"
         d="M 425.71414,307.37986 C 334.52949,277.16042 238.9289,432.63923 319.509,458.20964 c 32.09724,11.17824 -3.11646,56.30948 35.56234,27.48366 11.52969,-2.47793 20.98895,1.07559 28.92658,7.26529 4.17344,3.25442 7.92623,7.23759 11.33816,11.45602 7.46107,9.22472 13.2921,19.57445 18.32723,25.88871 6.28464,7.88117 11.32935,9.47552 16.75613,-5.25145 0.85439,-2.31862 1.71826,-5.04181 2.59792,-8.20873 0.73658,-2.65179 1.48425,-5.6147 2.2467,-8.91172 2.32159,-13.02627 3.95531,-20.15447 18.63017,-23.06327 69.53186,-12.05853 48.63784,-152.82183 -28.18009,-177.48829 z"
         id="path2452"
         sodipodi:nodetypes="cccsssssccc" />
      <path
         inkscape:connector-curvature="0"
         sodipodi:nodetypes="cccsssssccc"
         id="path3256"
         d="m 511.98802,398.7745 c -118.24686,-39.1881 -242.22024,162.43444 -137.7252,195.59376 41.62321,14.49577 -4.04138,73.02127 46.1167,35.64039 14.95152,-3.21335 27.21815,1.3948 37.51155,9.42151 5.41205,4.22028 10.27861,9.3856 14.70315,14.85599 9.6754,11.96248 17.23699,25.38385 23.76647,33.57209 8.14982,10.22018 14.69173,12.28771 21.72909,-6.81 1.10796,-3.00675 2.22822,-6.53815 3.36894,-10.64496 0.95519,-3.4388 1.92476,-7.28106 2.91349,-11.55658 3.0106,-16.89227 5.12919,-26.13601 24.15932,-29.9081 90.16785,-15.63731 63.07281,-198.17701 -36.54351,-230.1641 z"
         style="display:inline;overflow:visible;visibility:visible;fill:#e9afaf;fill-opacity:1;fill-rule:evenodd;stroke:#dc6c6c;stroke-width:2.66177464;stroke-linecap:round;stroke-linejoin:round;stroke-miterlimit:4;stroke-dasharray:none;stroke-dashoffset:0;stroke-opacity:1;marker:none;marker-start:none;marker-mid:none;marker-end:none;enable-background:accumulate" />
      <path
         inkscape:connector-curvature="0"
         style="display:inline;overflow:visible;visibility:visible;fill:#e9afaf;fill-opacity:1;fill-rule:evenodd;stroke:#dc6c6c;stroke-width:2.66162038;stroke-linecap:round;stroke-linejoin:round;stroke-miterlimit:4;stroke-dashoffset:0;stroke-opacity:1;marker:none;marker-start:none;marker-mid:none;marker-end:none;enable-background:accumulate"
         d="m 381.91773,740.26867 c 36.94319,-5.68654 16.61058,-81.98376 13.06833,-83.1492 -7.03133,-2.31342 -43.70234,87.86458 -13.06833,83.1492 z"
         id="path3258"
         sodipodi:nodetypes="css" />
      <path
         inkscape:connector-curvature="0"
         sodipodi:nodetypes="ccsc"
         id="path3260"
         d="m 344.74422,547.52396 c -6.7962,-75.12487 99.23781,-154.74031 143.13528,-141.44069 -34.37396,19.19843 -92.34743,86.39707 -110.04889,158.39081 -7.02794,28.58335 -32.91363,-2.50232 -33.08639,-16.95012 z"
         style="display:inline;overflow:visible;visibility:visible;fill:#f4d4d4;fill-opacity:1;fill-rule:evenodd;stroke:none;stroke-width:17;stroke-linecap:round;stroke-linejoin:round;stroke-miterlimit:4;stroke-dashoffset:0;stroke-opacity:1;marker:none;marker-start:none;marker-mid:none;marker-end:none;enable-background:accumulate" />
      <path
         inkscape:connector-curvature="0"
         style="display:inline;overflow:visible;visibility:visible;fill:#f4d4d4;fill-opacity:1;fill-rule:evenodd;stroke:none;stroke-width:17;stroke-linecap:round;stroke-linejoin:round;stroke-miterlimit:4;stroke-dashoffset:0;stroke-opacity:1;marker:none;marker-start:none;marker-mid:none;marker-end:none;enable-background:accumulate"
         d="m 477.85161,638.88707 c 0.50153,8.30024 17.05587,32.41618 22.88629,39.17113 18.71573,-0.42883 -22.41592,-37.98859 -22.88629,-39.17113 z"
         id="path3262"
         sodipodi:nodetypes="ccc" />
      <path
         inkscape:connector-curvature="0"
         sodipodi:nodetypes="ccc"
         id="path3264"
         d="m 377.91337,733.29804 c -8.4719,-8.01326 2.49424,-49.32751 14.86584,-64.0966 -4.99052,18.1627 -9.94958,48.25629 -14.86584,64.0966 z"
         style="display:inline;overflow:visible;visibility:visible;fill:#f4d4d4;fill-opacity:1;fill-rule:evenodd;stroke:none;stroke-width:17;stroke-linecap:round;stroke-linejoin:round;stroke-miterlimit:4;stroke-dashoffset:0;stroke-opacity:1;marker:none;marker-start:none;marker-mid:none;marker-end:none;enable-background:accumulate" />
      <path
         inkscape:connector-curvature="0"
         sodipodi:nodetypes="ccsc"
         id="path3266"
         d="m 567.8366,609.24661 c 40.65097,-62.25421 27.04697,-112.17609 -0.97551,-127.58996 -3.93574,15.67457 -2.83704,82.75909 -43.50589,127.5834 -16.1466,17.79637 34.61215,7.83464 44.4814,0.007 z"
         style="display:inline;overflow:visible;visibility:visible;fill:#e49c9c;fill-opacity:1;fill-rule:evenodd;stroke:none;stroke-width:17;stroke-linecap:round;stroke-linejoin:round;stroke-miterlimit:4;stroke-dashoffset:0;stroke-opacity:1;marker:none;marker-start:none;marker-mid:none;marker-end:none;enable-background:accumulate" />
      <path
         inkscape:connector-curvature="0"
         sodipodi:nodetypes="ccc"
         id="path3268"
         d="m 650.47614,534.32782 c -0.14534,60.59291 -21.53471,88.84577 -46.4458,143.31567 62.58848,-10.58412 73.74087,-121.62335 46.4458,-143.31567 z"
         style="display:inline;overflow:visible;visibility:visible;fill:#93b2e2;fill-opacity:1;fill-rule:evenodd;stroke:none;stroke-width:1.99999988;stroke-linecap:round;stroke-linejoin:round;stroke-miterlimit:4;stroke-dasharray:none;stroke-dashoffset:0;stroke-opacity:1;marker:none;marker-start:none;marker-mid:none;marker-end:none;enable-background:accumulate" />
      <path
         inkscape:connector-curvature="0"
         style="display:inline;overflow:visible;visibility:visible;fill:#45cc7c;fill-opacity:1;fill-rule:evenodd;stroke:none;stroke-width:3.07315707;stroke-linecap:round;stroke-linejoin:round;stroke-miterlimit:4;stroke-dashoffset:0;stroke-opacity:1;marker:none;marker-start:none;marker-mid:none;marker-end:none;enable-background:accumulate"
         d="m 603.83342,424.32339 c -21.45862,-9.68211 -55.58234,-43.56771 -84.83377,-55.8229 31.54126,-3.34262 84.83377,9.63257 84.83377,55.8229 z"
         id="path3270"
         sodipodi:nodetypes="ccc" />
      <path
         inkscape:connector-curvature="0"
         sodipodi:nodetypes="ccc"
         id="path3272"
         d="m 395.43498,409.0837 c -12.94245,17.24519 -48.45285,39.59752 -65.33388,63.36403 4.83318,-30.16823 28.03678,-76.033 65.33388,-63.36403 z"
         style="display:inline;overflow:visible;visibility:visible;fill:#f8ffda;fill-opacity:1;fill-rule:evenodd;stroke:none;stroke-width:3.07315707;stroke-linecap:round;stroke-linejoin:round;stroke-miterlimit:4;stroke-dashoffset:0;stroke-opacity:1;marker:none;marker-start:none;marker-mid:none;marker-end:none;enable-background:accumulate" />
      <path
         inkscape:connector-curvature="0"
         id="path3274"
         style="display:inline;overflow:visible;visibility:visible;fill:#675649;fill-opacity:1;fill-rule:evenodd;stroke:#675649;stroke-width:2.66177464;stroke-linecap:round;stroke-linejoin:round;stroke-miterlimit:4;stroke-dasharray:none;stroke-dashoffset:0;stroke-opacity:1;marker:none;marker-start:none;marker-mid:none;marker-end:none;enable-background:accumulate"
         d="m 517.86754,352.87941 c -33.33665,0 -62.95361,13.29712 -81.43634,33.76711 -0.009,0.0129 -0.0206,0.0242 -0.0335,0.0335 -0.0111,10e-4 -0.0224,10e-4 -0.0335,0 -0.0111,10e-4 -0.0224,10e-4 -0.0335,0 -0.0111,10e-4 -0.0224,10e-4 -0.0335,0 -4.2777,-0.54975 -8.61649,-0.87098 -13.03116,-0.87098 -60.5396,0 -109.70958,53.1231 -109.70958,118.48635 2e-5,29.19109 9.82061,55.83037 26.06232,76.47846 0.0129,0.009 0.0242,0.0206 0.0335,0.0335 10e-4,0.0111 10e-4,0.0224 0,0.0335 10e-4,0.0111 10e-4,0.0224 0,0.0335 10e-4,0.0111 10e-4,0.0224 0,0.0335 10e-4,0.0111 10e-4,0.0224 0,0.0335 -0.009,0.0129 -0.0206,0.0242 -0.0335,0.0335 -0.009,0.0129 -0.0206,0.0242 -0.0335,0.0335 -1.41596,0.63435 -2.77249,2.51903 -4.01989,5.49386 -1.24739,2.97482 -2.38531,7.02796 -3.41691,12.02617 -2.06319,9.99645 -3.70468,23.70572 -4.92436,39.89745 -2.43936,32.38344 -3.25579,74.66452 -2.61293,116.84489 0.64284,42.18037 2.73741,84.28332 6.06333,116.30891 1.66296,16.01278 3.6389,29.49933 5.89585,39.22746 1.12847,4.86406 2.32154,8.77267 3.5844,11.59069 1.26285,2.81801 2.59111,4.53292 3.91939,4.99136 1.0673,0.36837 2.76197,0.0718 4.95787,-0.87097 2.19591,-0.94273 4.90877,-2.53376 8.07329,-4.68988 6.32903,-4.31223 14.46009,-10.91336 23.91836,-19.29549 18.91655,-16.76425 43.1356,-40.60854 68.84067,-67.4337 51.41015,-53.65033 108.79684,-119.17567 141.70124,-163.40866 0.009,-0.0129 0.0206,-0.0242 0.0335,-0.0335 0.0111,-10e-4 0.0224,-10e-4 0.0335,0 0.0111,-10e-4 0.0224,-10e-4 0.0335,0 0.0111,-10e-4 0.0224,-10e-4 0.0335,0 0.0111,-10e-4 0.0224,-10e-4 0.0335,0 0.0129,0.009 0.0242,0.0206 0.0335,0.0335 0.0129,0.009 0.0242,0.0206 0.0335,0.0335 0.001,0.0111 0.001,0.0224 0,0.0335 0.001,0.0111 0.001,0.0224 0,0.0335 0.001,0.0111 0.001,0.0224 0,0.0335 -1.18409,8.96858 -0.68245,15.75241 1.80895,19.32898 1.24571,1.78829 2.99638,2.77487 5.29286,2.88092 2.29649,0.10605 5.16107,-0.69878 8.64277,-2.54592 18.06437,-9.58371 35.38158,-20.9989 48.17173,-38.0215 12.79013,-17.02259 21.07094,-39.64984 21.07093,-71.62109 -5.19347,-62.36763 -18.33123,-110.57462 -57.68547,-139.95928 -0.0129,-0.009 -0.0242,-0.0206 -0.0335,-0.0335 -10e-4,-0.0111 -10e-4,-0.0224 0,-0.0335 -10e-4,-0.0111 -10e-4,-0.0224 0,-0.0335 0.13596,-1.76859 0.2345,-3.56579 0.2345,-5.35986 0,-46.09465 -45.44636,-83.5468 -101.4353,-83.54678 z m 0,-13.90213 c -34.35655,0 -65.3653,12.69633 -86.7962,33.46561 -2.60077,-0.18689 -5.12367,-0.53599 -7.8053,-0.53599 -68.67276,0 -123.6117,60.05191 -123.6117,132.38849 1e-5,28.57847 8.55265,55.09656 23.08088,76.81346 0.005,0.008 -0.005,0.0259 0,0.0335 -1.81918,4.34604 -3.08378,9.06272 -4.22089,14.57211 -2.27916,11.04282 -3.91369,25.14265 -5.15885,41.67289 -2.49036,33.06049 -3.29411,75.58696 -2.64644,118.08436 0.64768,42.4974 2.73678,84.87143 6.13034,117.54838 1.69678,16.33848 3.7039,30.18845 6.19733,40.93592 1.24672,5.37372 2.53531,9.92679 4.42188,14.13661 1.88658,4.20983 3.6497,9.51402 12.09318,12.42818 7.28022,2.51265 11.41477,0.32209 14.9741,-1.20597 3.55935,-1.52807 6.81379,-3.54048 10.41823,-5.99635 7.20889,-4.9117 15.58652,-11.76639 25.29183,-20.36745 19.41062,-17.20213 43.80528,-41.23742 69.67815,-68.23768 43.72684,-45.63224 91.3778,-99.38193 125.42067,-142.23722 3.56049,3.06668 8.42937,5.25249 12.93065,5.46035 6.03267,0.27857 11.00628,-1.60453 15.81158,-4.1539 18.86115,-10.00643 38.14871,-22.52653 52.7611,-41.97437 14.61238,-19.44786 23.85137,-45.58878 23.85136,-79.96238 -0.007,-0.38043 -0.0289,-0.76041 -0.067,-1.13897 C 685.5566,519.87189 672.6123,468.51364 633.13796,435.38772 632.46648,380.67575 579.66073,338.97726 517.86753,338.97728 Z" />
    </g>
  </g>
</svg>
